<!-- Generator: Adobe Illustrator 19.1.0, SVG Export Plug-In  -->
<svg version="1.1"
	 xmlns="http://www.w3.org/2000/svg" xmlns:xlink="http://www.w3.org/1999/xlink" xmlns:a="http://ns.adobe.com/AdobeSVGViewerExtensions/3.0/"
	 x="0px" y="0px" width="120.1px" height="599.9px" viewBox="0 0 120.1 599.9" style="enable-background:new 0 0 120.1 599.9;"
	 xml:space="preserve">
<style type="text/css">
	.st0{fill:url(#SVGID_1_);}
	.st1{fill:#FFFFFF;}
	.st2{fill:none;}
	.st3{font-family:'MarkerFelt-Wide';}
	.st4{font-size:46px;}
	.st5{font-size:26px;}
	.st6{font-size:24px;}
	.st7{font-size:28px;}
	.st8{font-size:36px;}
	.st9{fill:#D7DF23;}
	.st10{font-size:50px;}
	.st11{fill:url(#SVGID_2_);}
	.st12{letter-spacing:1;}
	.st13{letter-spacing:-2;}
	.st14{letter-spacing:2;}
</style>
<defs>
</defs>
<linearGradient id="SVGID_1_" gradientUnits="userSpaceOnUse" x1="240.0357" y1="479.9161" x2="-119.9401" y2="119.9403">
	<stop  offset="0" style="stop-color:#00A79D"/>
	<stop  offset="0.2349" style="stop-color:#00A89E;stop-opacity:0.7419"/>
	<stop  offset="0.3682" style="stop-color:#20AAA1;stop-opacity:0.5954"/>
	<stop  offset="0.4761" style="stop-color:#40AFA7;stop-opacity:0.4768"/>
	<stop  offset="0.5705" style="stop-color:#5CB6AF;stop-opacity:0.3731"/>
	<stop  offset="0.656" style="stop-color:#79BFBA;stop-opacity:0.2791"/>
	<stop  offset="0.7351" style="stop-color:#98CBC7;stop-opacity:0.1923"/>
	<stop  offset="0.8092" style="stop-color:#BCDBD9;stop-opacity:0.1107"/>
	<stop  offset="0.8777" style="stop-color:#E5F0EF;stop-opacity:3.550887e-02"/>
	<stop  offset="0.91" style="stop-color:#FFFFFF;stop-opacity:0"/>
</linearGradient>
<path class="st0" d="M0,599.9C0,399.9,0,200,0,0c40,0,80.1,0,120.1,0c0,200,0,399.9,0,599.9C80.1,599.9,40,599.9,0,599.9z
	 M42.1,559.7c11.8,0,23.6,0,35.5,0c-5.9-7.9-11.8-15.8-17.7-23.7C53.9,544,48,551.8,42.1,559.7z M59.8,587.8
	c5.9-7.9,11.8-15.8,17.7-23.7c-11.9,0-23.6,0-35.5,0C48,572,53.9,579.9,59.8,587.8z M38.2,565.9c-3.9,7.8-7.7,15.5-11.5,23.2
	c9.7,0,19.3,0,28.9,0C49.8,581.4,44,573.7,38.2,565.9z M93,589.2c-3.8-7.8-7.7-15.5-11.5-23.3c-5.8,7.8-11.6,15.5-17.4,23.3
	C73.8,589.2,83.4,589.2,93,589.2z M38.2,557.9c5.8-7.8,11.6-15.5,17.4-23.2c-9.7,0-19.3,0-28.9,0C30.5,542.4,34.3,550.1,38.2,557.9z
	 M81.5,557.9c3.9-7.8,7.7-15.5,11.5-23.2c-9.7,0-19.3,0-28.9,0C69.9,542.4,75.7,550.1,81.5,557.9z M15.1,559.8c6.4,0,12.8,0,19.2,0
	c-3.6-7.3-7.2-14.6-10.9-22C20.7,545.2,17.9,552.5,15.1,559.8z M34.4,564c-6.4,0-12.8,0-19.2,0c2.8,7.3,5.5,14.6,8.3,22
	C27.1,578.6,30.7,571.4,34.4,564z M85.3,559.8c6.4,0,12.8,0,19.2,0c-2.8-7.3-5.5-14.6-8.3-22C92.5,545.2,88.9,552.4,85.3,559.8z
	 M85.3,564c3.6,7.3,7.2,14.6,10.9,22c2.8-7.4,5.6-14.7,8.3-22C98.1,564,91.7,564,85.3,564z M55.4,530.3c-3.2-3.9-6.3-7.8-9.5-11.7
	c-5.4,3.9-10.7,7.8-16.1,11.7C38.4,530.3,46.8,530.3,55.4,530.3z M89.9,530.3c-5.4-3.9-10.8-7.8-16.1-11.7
	c-3.2,3.9-6.3,7.8-9.5,11.7C72.8,530.3,81.3,530.3,89.9,530.3z M68.9,517.9c-6.1,0-12.1,0-18.1,0c3,3.8,6,7.5,9.1,11.2
	C62.9,525.3,65.9,521.6,68.9,517.9z"/>
<g>
	<path class="st1" d="M42.2,559.7C48.1,551.8,54,544,59.9,536c5.9,7.9,11.8,15.8,17.7,23.7C65.8,559.7,54,559.7,42.2,559.7z"/>
	<path class="st1" d="M59.9,587.8c-5.9-7.9-11.8-15.8-17.7-23.7c11.8,0,23.6,0,35.5,0C71.7,572,65.8,579.9,59.9,587.8z"/>
	<path class="st1" d="M38.3,565.9c5.8,7.8,11.6,15.5,17.4,23.2c-9.7,0-19.2,0-28.9,0C30.6,581.4,34.4,573.7,38.3,565.9z"/>
	<path class="st1" d="M93.1,589.2c-9.7,0-19.2,0-28.9,0c5.8-7.8,11.6-15.5,17.4-23.3C85.4,573.7,89.2,581.4,93.1,589.2z"/>
	<path class="st1" d="M38.3,557.9c-3.9-7.8-7.7-15.5-11.5-23.2c9.7,0,19.2,0,28.9,0C49.8,542.4,44.1,550.1,38.3,557.9z"/>
	<path class="st1" d="M81.6,557.9c-5.8-7.8-11.6-15.5-17.4-23.2c9.6,0,19.2,0,28.9,0C89.2,542.4,85.4,550.1,81.6,557.9z"/>
	<path class="st1" d="M15.2,559.8c2.8-7.3,5.5-14.6,8.3-22c3.7,7.4,7.3,14.7,10.9,22C28,559.8,21.6,559.8,15.2,559.8z"/>
	<path class="st1" d="M34.5,564c-3.6,7.3-7.2,14.6-10.9,22c-2.8-7.4-5.6-14.7-8.3-22C21.6,564,28,564,34.5,564z"/>
	<path class="st1" d="M85.3,559.8c3.6-7.3,7.2-14.6,10.9-22c2.8,7.4,5.6,14.7,8.3,22C98.1,559.8,91.7,559.8,85.3,559.8z"/>
	<path class="st1" d="M85.4,564c6.4,0,12.8,0,19.2,0c-2.8,7.3-5.5,14.6-8.3,22C92.6,578.6,89,571.4,85.4,564z"/>
	<path class="st1" d="M55.4,530.3c-8.6,0-17,0-25.6,0c5.4-3.9,10.7-7.8,16.1-11.7C49.1,522.5,52.2,526.4,55.4,530.3z"/>
	<path class="st1" d="M90,530.3c-8.6,0-17,0-25.6,0c3.2-3.9,6.3-7.8,9.5-11.7C79.2,522.5,84.5,526.4,90,530.3z"/>
	<path class="st1" d="M69,517.9c-3,3.8-6,7.5-9.1,11.2c-3-3.7-6-7.5-9.1-11.2C56.9,517.9,62.9,517.9,69,517.9z"/>
</g>
<rect x="11.7" y="257.1" class="st2" width="96" height="257.5"/>
<text transform="matrix(1 0 0 1 11.696 295.1351)"><tspan x="0" y="0" class="st1 st3 st4">This </tspan><tspan x="0" y="35.2" class="st1 st3 st5">Summer</tspan><tspan x="89.4" y="35.2" class="st1 st3 st6"> </tspan><tspan x="0" y="70.8" class="st1 st3 st7">Science</tspan><tspan x="85.4" y="70.8" class="st1 st3 st6"> </tspan><tspan x="0" y="114" class="st1 st3 st8">World</tspan><tspan x="90.7" y="114" class="st9 st3 st8"> </tspan><tspan x="0" y="142.8" class="st1 st3 st6">comes to </tspan><tspan x="0" y="190.8" class="st9 st3 st10">you!</tspan></text>
</svg>
