<!-- Generator: Adobe Illustrator 19.1.0, SVG Export Plug-In  -->
<svg version="1.1"
	 xmlns="http://www.w3.org/2000/svg" xmlns:xlink="http://www.w3.org/1999/xlink" xmlns:a="http://ns.adobe.com/AdobeSVGViewerExtensions/3.0/"
	 x="0px" y="0px" width="120.4px" height="880.2px" viewBox="0 0 120.4 880.2" style="enable-background:new 0 0 120.4 880.2;"
	 xml:space="preserve">
<style type="text/css">
	.st0{fill:#E6E7E8;}
	.st1{fill:#00A79D;}
	.st2{fill:#EF4136;}
	.st3{fill:#58595B;}
	.st4{fill:#808285;}
	.st5{fill:none;stroke:#EF4136;stroke-width:5;stroke-linecap:round;stroke-linejoin:round;stroke-miterlimit:10;}
	.st6{fill:#009088;}
	.st7{fill:#00A79D;stroke:#6D6E71;stroke-miterlimit:10;}
	.st8{fill:#00A79D;stroke:#6D6E71;stroke-width:0.9102;stroke-miterlimit:10;}
	.st9{fill:#FFFFFF;}
	.st10{fill:#6D6E71;stroke:#F9ED32;stroke-miterlimit:10;}
	.st11{fill:none;stroke:#6D6E71;stroke-width:1.4703;stroke-miterlimit:10;}
	.st12{fill:#D7DF23;}
</style>
<defs>
</defs>
<rect x="0" class="st0" width="120" height="600"/>
<rect x="0" y="70" class="st1" width="100" height="13.7"/>
<circle class="st2" cx="25.3" cy="58.3" r="11.3"/>
<circle class="st3" cx="56" cy="76.8" r="3"/>
<rect x="0" y="84.8" class="st4" width="32.3" height="5.2"/>
<path class="st5" d="M70.3,233c11.4-6.1,19.7-17.3,21.9-30.6"/>
<path class="st5" d="M57.3,153.6c-2.3-0.4-4.6-0.6-7-0.6c-23.5,0-42.5,19-42.5,42.5c0,20.4,14.3,37.4,33.5,41.5"/>
<polygon class="st6" points="37.9,296.8 74.3,301.2 53.3,499.3 16.8,495.4 "/>
<path class="st7" d="M40,277.6L16.8,495.4l36.4,3.9l23.1-217.8L40,277.6z M43.6,416.2c-3.6,0-6.5-2.9-6.5-6.5s2.9-6.5,6.5-6.5
	s6.5,2.9,6.5,6.5S47.2,416.2,43.6,416.2z M46.6,389.2c-3.6,0-6.5-2.9-6.5-6.5s2.9-6.5,6.5-6.5s6.5,2.9,6.5,6.5
	S50.2,389.2,46.6,389.2z M53.1,324.5c-3.6,0-6.5-2.9-6.5-6.5s2.9-6.5,6.5-6.5s6.5,2.9,6.5,6.5S56.7,324.5,53.1,324.5z"/>
<rect x="35" y="279.6" transform="matrix(0.9944 0.1057 -0.1057 0.9944 30.8895 -4.4787)" class="st8" width="45.3" height="19.3"/>
<path class="st1" d="M0,567.2c0,0,19.5,31.8,42.9,32.8H0V567.2z"/>
<rect x="17.8" y="545.4" class="st2" width="102.6" height="10"/>
<rect x="77.9" y="677.7" class="st2" width="34.8" height="202.6"/>
<text transform="matrix(0 1 -1 0 89.7002 694.8555)" class="st9" style="font-family:'MyriadPro-Regular'; font-size:20px;">Summer of Science!</text>
<path class="st2" d="M94.7,643.3"/>
<circle class="st10" cx="94.7" cy="684" r="2.7"/>
<path class="st11" d="M93.3,621.4c-2.2,5.4-2.8,13.3-1.9,20.3c0.4,3.4,1.1,6.7,1.6,10c1.7,9.9,2.1,20.8,1.3,31.2"/>
<path class="st12" d="M92,617.7c-1.9,3.9-2.3,4.7-2.3,4.7l5.6,0.8l-0.9-5.6L92,617.7z"/>
<ellipse class="st12" cx="95.3" cy="589.7" rx="21" ry="27.8"/>
<circle class="st3" cx="64.9" cy="550.5" r="3"/>
</svg>
