<!-- Generator: Adobe Illustrator 19.1.0, SVG Export Plug-In  -->
<svg version="1.1"
	 xmlns="http://www.w3.org/2000/svg" xmlns:xlink="http://www.w3.org/1999/xlink" xmlns:a="http://ns.adobe.com/AdobeSVGViewerExtensions/3.0/"
	 x="0px" y="0px" width="65.5px" height="223.1px" viewBox="0 0 65.5 223.1" style="enable-background:new 0 0 65.5 223.1;"
	 xml:space="preserve">
<style type="text/css">
	.st0{fill:#00A79D;stroke:#6D6E71;stroke-miterlimit:10;}
	.st1{fill:#00A79D;stroke:#6D6E71;stroke-width:0.9102;stroke-miterlimit:10;}
</style>
<defs>
</defs>
<path class="st0" d="M23.7,0.9L0.6,218.7l36.4,3.9L60.1,4.8L23.7,0.9z M27.3,139.5c-3.6,0-6.5-2.9-6.5-6.5s2.9-6.5,6.5-6.5
	s6.5,2.9,6.5,6.5S30.9,139.5,27.3,139.5z M30.3,112.5c-3.6,0-6.5-2.9-6.5-6.5s2.9-6.5,6.5-6.5s6.5,2.9,6.5,6.5
	S33.9,112.5,30.3,112.5z M36.8,47.8c-3.6,0-6.5-2.9-6.5-6.5s2.9-6.5,6.5-6.5s6.5,2.9,6.5,6.5S40.4,47.8,36.8,47.8z"/>
<rect x="18.7" y="2.8" transform="matrix(0.9944 0.1057 -0.1057 0.9944 1.5537 -4.3061)" class="st1" width="45.3" height="19.3"/>
</svg>
