<!-- Generator: Adobe Illustrator 19.1.0, SVG Export Plug-In  -->
<svg version="1.1"
	 xmlns="http://www.w3.org/2000/svg" xmlns:xlink="http://www.w3.org/1999/xlink" xmlns:a="http://ns.adobe.com/AdobeSVGViewerExtensions/3.0/"
	 x="0px" y="0px" width="120.1px" height="599.9px" viewBox="0 0 120.1 599.9" style="enable-background:new 0 0 120.1 599.9;"
	 xml:space="preserve">
<style type="text/css">
	.st0{fill:none;}
	.st1{fill:#C6DD7F;}
	.st2{fill:#E9DDB7;}
	.st3{fill:#A6D0E4;}
	.st4{fill:#00A79D;}
	.st5{fill:url(#Alyssa);}
	.st6{fill:#FFFFFF;}
	.st7{font-family:'MarkerFelt-Wide';}
	.st8{font-size:50px;}
	.st9{font-size:46px;}
	.st10{font-size:25px;}
	.st11{font-size:24px;}
	.st12{font-size:28px;}
	.st13{font-size:36px;}
	.st14{fill:#D7DF23;}
	.st15{letter-spacing:1;}
	.st16{letter-spacing:2;}
	.st17{letter-spacing:-4;}
	.st18{letter-spacing:-2;}
</style>
<defs>
	
		<pattern  x="-0.3" width="144.1" height="138.4" patternUnits="userSpaceOnUse" id="Alyssa" viewBox="100 -216.8 144.1 138.4" style="overflow:visible;">
		<g>
			<polygon class="st0" points="100,-216.8 244.1,-216.8 244.1,-78.5 100,-78.5 			"/>
			<g>
				<path class="st1" d="M311-58.3c-11.8-1.4-19.4,0.3-22.7,3.1c-3,2.5-5,5.4-2.2,11.9c2.9,7.1,1.5,14.7-5.5,15.9
					c-6.2,1-10.9-4.8-11.2-12.3c-0.2-5.2-1.9-8.3-5.5-7.6c-3.6,0.7-4.6,5.9-3.6,11.8c1.4,8.1,5.5,11.8,6.2,20.2
					c0.5,6.1-2.9,13.7-12.5,15c-9.3,1.4-15.9-4.3-16.6-10.5c-0.7-6.6,3.6-10.9,3.1-17.6c-0.5-6.7-4-10.2-5.9-17.3
					c-2.8-10.5,1.2-19,7.8-22.7c14.7-8.1,22.8,3.6,36,1.6c10.9-1.7,23.3-18.2,33-19.5c8.2-1.2,13.8,4.7,15,14
					C327.6-63,321.7-57.1,311-58.3z M268.8-57.8c0-2.3-1.9-4.2-4.2-4.2c-2.3,0-4.2,1.9-4.2,4.2s1.9,4.2,4.2,4.2
					C267-53.6,268.8-55.5,268.8-57.8z M318.3-73.2c0-1-0.8-1.7-1.7-1.7c-1,0-1.7,0.8-1.7,1.7s0.8,1.7,1.7,1.7
					C317.5-71.4,318.3-72.2,318.3-73.2z"/>
			</g>
			<g>
				<path class="st2" d="M148.8-77.5c0,7.2,4.6,13.8-1,16.3c-8.5,3.8-28-14.3-28-36.2c0-12,8.7-19,17.8-19c12.3,0,18,8.2,18,17.5
					C155.6-89.5,148.8-85.7,148.8-77.5z M143.4-82.9c0-1.1-0.9-2.1-2.1-2.1c-1.1,0-2.1,0.9-2.1,2.1c0,1.1,0.9,2.1,2.1,2.1
					C142.5-80.8,143.4-81.7,143.4-82.9z"/>
				<path class="st3" d="M223.5-54c-7.9,2.7-19.4-15.3-17.7-27c1.2-8.2,7.1-13.2,13.1-14.2c7.5-1.3,12.9,2.6,13.3,7.2
					c0.5,6.3-3.6,7.5-4.2,15C227.4-65.9,231.7-56.8,223.5-54z M219.7-81.5c0-1.4-1.2-2.6-2.6-2.6c-1.4,0-2.6,1.2-2.6,2.6
					c0,1.4,1.2,2.6,2.6,2.6C218.5-78.9,219.7-80.1,219.7-81.5z"/>
				<path class="st2" d="M119.4-76.5c0,1.4-1.2,2.6-2.6,2.6c-1.4,0-2.6-1.2-2.6-2.6s1.2-2.6,2.6-2.6
					C118.2-79.1,119.4-77.9,119.4-76.5z"/>
				<path class="st3" d="M184.6-84.2c0.7,8.1,12.7,7,17.9,14.2c10.5,14.5-1.2,46.4-21.6,46.4c-11.7,0-24.2-9.7-24.2-29.2
					c0-15.8,10.2-21.5,8.2-42.2c-1-10.8-12.5-20.3-12.5-34.8c0-5.9,3.6-13.4,11.6-13.4c7.1,0,10.8,6,10.8,12.9
					c0,6.8-5.4,15.7,1.4,19c5.2,2.6,13.2-4.8,19.5-6.8c5.2-1.6,12.4,0.2,14.8,8.5c2.5,8.9-3.3,14.7-11.6,16.7
					C192.5-91.3,184-90.6,184.6-84.2z M168.6-114.7c0-1.8-1.5-3.3-3.3-3.3c-1.8,0-3.3,1.5-3.3,3.3c0,1.8,1.5,3.3,3.3,3.3
					C167.1-111.5,168.6-112.9,168.6-114.7z M194.6-105.1c1.3,0,2.3-1,2.3-2.3c0-1.3-1-2.3-2.3-2.3c-1.3,0-2.3,1-2.3,2.3
					C192.2-106.1,193.3-105.1,194.6-105.1z M174.6-45.4c0-1.8-1.5-3.3-3.3-3.3c-1.8,0-3.3,1.5-3.3,3.3c0,1.8,1.5,3.3,3.3,3.3
					C173.1-42.1,174.6-43.6,174.6-45.4z"/>
				<path class="st1" d="M166.9-58.3c-11.8-1.4-19.4,0.3-22.7,3.1c-3,2.5-5,5.4-2.2,11.9c2.9,7.1,1.5,14.7-5.5,15.9
					c-6.2,1-10.9-4.8-11.2-12.3c-0.2-5.2-1.9-8.3-5.5-7.6c-3.6,0.7-4.6,5.9-3.6,11.8c1.4,8.1,5.5,11.8,6.2,20.2
					c0.5,6.1-2.9,13.7-12.5,15c-9.3,1.4-15.9-4.3-16.6-10.5c-0.7-6.6,3.6-10.9,3.1-17.6c-0.5-6.7-4-10.2-5.9-17.3
					c-2.8-10.5,1.2-19,7.8-22.7c14.7-8.1,22.8,3.6,36,1.6c10.9-1.7,23.3-18.2,33-19.5c8.2-1.2,13.8,4.7,15,14
					C183.5-63,177.6-57.1,166.9-58.3z M124.7-57.8c0-2.3-1.9-4.2-4.2-4.2c-2.3,0-4.2,1.9-4.2,4.2s1.9,4.2,4.2,4.2
					C122.9-53.6,124.7-55.5,124.7-57.8z M174.2-73.2c0-1-0.8-1.7-1.7-1.7c-1,0-1.7,0.8-1.7,1.7s0.8,1.7,1.7,1.7
					C173.4-71.4,174.2-72.2,174.2-73.2z"/>
			</g>
			<g>
				<path class="st3" d="M290.3-104.8c0,6.2-4.2,10.7-8.6,11.6c-4.5,0.9-8.3-1.3-13,1.2c-4.8,2.6-7.1,11.1-16.8,11.1
					c-8,0-15.2-8-15.2-18.8c0-20.2,13.1-29.2,25.6-29.2C278.9-129.1,290.3-116.4,290.3-104.8z M270.6-119.2c0-2.1-1.7-3.8-3.8-3.8
					c-2.1,0-3.8,1.7-3.8,3.8c0,2.1,1.7,3.8,3.8,3.8C268.9-115.4,270.6-117.1,270.6-119.2z"/>
				<path class="st1" d="M311-196.7c-11.8-1.4-19.4,0.3-22.7,3.1c-3,2.5-5,5.4-2.2,11.9c2.9,7.1,1.5,14.7-5.5,15.9
					c-6.2,1-10.9-4.8-11.2-12.3c-0.2-5.2-1.9-8.3-5.5-7.6c-3.6,0.7-4.6,5.9-3.6,11.8c1.4,8.1,5.5,11.8,6.2,20.2
					c0.5,6.1-2.9,13.7-12.5,15c-9.3,1.4-15.9-4.3-16.6-10.5c-0.7-6.6,3.6-10.9,3.1-17.6c-0.5-6.7-4-10.2-5.9-17.3
					c-2.8-10.5,1.2-19,7.8-22.7c14.7-8.1,22.8,3.6,36,1.6c10.9-1.7,23.3-18.2,33-19.5c8.2-1.2,13.8,4.7,15,14
					C327.6-201.3,321.7-195.4,311-196.7z M268.8-196.2c0-2.3-1.9-4.2-4.2-4.2c-2.3,0-4.2,1.9-4.2,4.2c0,2.3,1.9,4.2,4.2,4.2
					C267-192,268.8-193.9,268.8-196.2z M318.3-211.5c0-1-0.8-1.7-1.7-1.7c-1,0-1.7,0.8-1.7,1.7c0,1,0.8,1.7,1.7,1.7
					C317.5-209.8,318.3-210.6,318.3-211.5z"/>
			</g>
			<g>
				<path class="st3" d="M131.8-133.2c-14,2-21.2-13.3-17.7-20.3c3.7-7.3,12.1-4.2,19.5-4.2c9.7,0,16.4-7.6,20.4-2.2
					C158.3-154.4,149-135.6,131.8-133.2z M132.3-150.7c0-1.2-1-2.2-2.2-2.2c-1.2,0-2.2,1-2.2,2.2c0,1.2,1,2.2,2.2,2.2
					C131.3-148.4,132.3-149.4,132.3-150.7z"/>
				<path class="st2" d="M148.8-215.9c0,7.2,4.6,13.8-1,16.3c-8.5,3.8-28-14.3-28-36.2c0-12,8.7-19,17.8-19c12.3,0,18,8.2,18,17.5
					C155.6-227.9,148.8-224.1,148.8-215.9z M143.4-221.2c0-1.1-0.9-2.1-2.1-2.1c-1.1,0-2.1,0.9-2.1,2.1c0,1.1,0.9,2.1,2.1,2.1
					C142.5-219.2,143.4-220.1,143.4-221.2z"/>
				<path class="st3" d="M146.2-104.8c0,6.2-4.2,10.7-8.6,11.6c-4.5,0.9-8.3-1.3-13,1.2c-4.8,2.6-7.1,11.1-16.8,11.1
					c-8,0-15.2-8-15.2-18.8c0-20.2,13.1-29.2,25.6-29.2C134.7-129.1,146.2-116.4,146.2-104.8z M126.4-119.2c0-2.1-1.7-3.8-3.8-3.8
					c-2.1,0-3.8,1.7-3.8,3.8c0,2.1,1.7,3.8,3.8,3.8C124.7-115.4,126.4-117.1,126.4-119.2z"/>
				<path class="st1" d="M145.5-128.5c0,1.3-1.1,2.4-2.4,2.4c-1.3,0-2.4-1.1-2.4-2.4c0-1.3,1.1-2.4,2.4-2.4
					C144.4-131,145.5-129.9,145.5-128.5z"/>
				<path class="st3" d="M229.2-147c-3.2,4.7,1,10.7-1.4,15.2c-2.4,4.5-6.7,5-9.9,2.6c-3.6-2.8-3.4-6.6-8.3-8.8
					c-5.5-2.5-18,2.2-19.7-7.3c-0.9-4.8,2.4-8.6,7.3-9.7c6.1-1.4,9.4-0.2,15.4-3.1c6.1-2.9,11.2-9,22.1-12.1
					c10.4-3,16.1,1.6,16.6,5.9C252.3-155.9,234.2-154.4,229.2-147z M226.9-154.5c0-1.2-1-2.2-2.2-2.2c-1.2,0-2.2,1-2.2,2.2
					c0,1.2,1,2.2,2.2,2.2C225.9-152.2,226.9-153.2,226.9-154.5z"/>
				<path class="st2" d="M256.1-107.9c0,17.2-14.5,25.5-27,22.8c-10.3-2.2-12.8-17.3-16.7-26.2c-3.7-8.6-8.8-22.5-20.2-22.5
					c-11.2,0-12.8,14.5-23.7,14.5c-11,0-24.5-15.7-24.5-39.7c0-14.7,9.8-31.5,20.8-30.7c11.7,0.8,4.5,19.7,15.3,19.7
					c9.5,0,7.9-16.3,9.2-23.3c1.7-9,6.8-14.2,18.5-13.2c14.4,1.2,22.3,13.5,18.9,23.3c-4,11.5-23.9,17.3-21.5,30.5
					c1.3,7.6,13,12,26,16.2C245.8-131.7,256.1-125,256.1-107.9z M211.2-183.7c0,1.8,1.5,3.3,3.3,3.3c1.8,0,3.3-1.5,3.3-3.3
					s-1.5-3.3-3.3-3.3C212.6-187,211.2-185.5,211.2-183.7z M164.5-158.8c0-1-0.8-1.7-1.7-1.7c-1,0-1.7,0.8-1.7,1.7
					c0,1,0.8,1.7,1.7,1.7C163.7-157.1,164.5-157.8,164.5-158.8z M182-148.1c0-2.1-1.7-3.8-3.8-3.8c-2.1,0-3.8,1.7-3.8,3.8
					c0,2.1,1.7,3.8,3.8,3.8C180.2-144.3,182-146,182-148.1z M201.8-163.6c0-0.9-0.7-1.6-1.6-1.6c-0.9,0-1.6,0.7-1.6,1.6
					c0,0.9,0.7,1.6,1.6,1.6C201.1-162.1,201.8-162.8,201.8-163.6z M231.5-108.9c0-1.8-1.4-3.2-3.2-3.2c-1.8,0-3.2,1.4-3.2,3.2
					c0,1.8,1.4,3.2,3.2,3.2C230.1-105.8,231.5-107.2,231.5-108.9z"/>
				<path class="st3" d="M223.5-192.4c-7.9,2.7-19.4-15.3-17.7-27c1.2-8.2,7.1-13.2,13.1-14.2c7.5-1.3,12.9,2.6,13.3,7.2
					c0.5,6.3-3.6,7.5-4.2,15C227.4-204.3,231.7-195.2,223.5-192.4z M219.7-219.9c0-1.4-1.2-2.6-2.6-2.6c-1.4,0-2.6,1.2-2.6,2.6
					c0,1.4,1.2,2.6,2.6,2.6C218.5-217.3,219.7-218.4,219.7-219.9z"/>
				<path class="st2" d="M119.4-214.8c0,1.4-1.2,2.6-2.6,2.6c-1.4,0-2.6-1.2-2.6-2.6c0-1.4,1.2-2.6,2.6-2.6
					C118.2-217.4,119.4-216.3,119.4-214.8z"/>
				<path class="st2" d="M253.3-128.1c0-8.4-5.1-15.2-11.3-15.2s-11.3,6.8-11.3,15.2c0,8.4,5.1,12.4,11.3,12.4
					S253.3-119.7,253.3-128.1z"/>
				<path class="st3" d="M184.6-222.6c0.7,8.1,12.7,7,17.9,14.2c10.5,14.5-1.2,46.4-21.6,46.4c-11.7,0-24.2-9.7-24.2-29.2
					c0-15.8,10.2-21.5,8.2-42.2c-1-10.8-12.5-20.3-12.5-34.8c0-5.9,3.6-13.4,11.6-13.4c7.1,0,10.8,6,10.8,12.9
					c0,6.8-5.4,15.7,1.4,19c5.2,2.6,13.2-4.8,19.5-6.8c5.2-1.6,12.4,0.2,14.8,8.5c2.5,8.9-3.3,14.7-11.6,16.7
					C192.5-229.7,184-229,184.6-222.6z M168.6-253.1c0-1.8-1.5-3.3-3.3-3.3c-1.8,0-3.3,1.5-3.3,3.3c0,1.8,1.5,3.3,3.3,3.3
					C167.1-249.8,168.6-251.3,168.6-253.1z M194.6-243.4c1.3,0,2.3-1,2.3-2.3c0-1.3-1-2.3-2.3-2.3c-1.3,0-2.3,1-2.3,2.3
					C192.2-244.5,193.3-243.4,194.6-243.4z M174.6-183.7c0-1.8-1.5-3.3-3.3-3.3c-1.8,0-3.3,1.5-3.3,3.3c0,1.8,1.5,3.3,3.3,3.3
					C173.1-180.5,174.6-181.9,174.6-183.7z"/>
				<path class="st1" d="M166.9-196.7c-11.8-1.4-19.4,0.3-22.7,3.1c-3,2.5-5,5.4-2.2,11.9c2.9,7.1,1.5,14.7-5.5,15.9
					c-6.2,1-10.9-4.8-11.2-12.3c-0.2-5.2-1.9-8.3-5.5-7.6c-3.6,0.7-4.6,5.9-3.6,11.8c1.4,8.1,5.5,11.8,6.2,20.2
					c0.5,6.1-2.9,13.7-12.5,15c-9.3,1.4-15.9-4.3-16.6-10.5c-0.7-6.6,3.6-10.9,3.1-17.6c-0.5-6.7-4-10.2-5.9-17.3
					c-2.8-10.5,1.2-19,7.8-22.7c14.7-8.1,22.8,3.6,36,1.6c10.9-1.7,23.3-18.2,33-19.5c8.2-1.2,13.8,4.7,15,14
					C183.5-201.3,177.6-195.4,166.9-196.7z M124.7-196.2c0-2.3-1.9-4.2-4.2-4.2c-2.3,0-4.2,1.9-4.2,4.2c0,2.3,1.9,4.2,4.2,4.2
					C122.9-192,124.7-193.9,124.7-196.2z M174.2-211.5c0-1-0.8-1.7-1.7-1.7c-1,0-1.7,0.8-1.7,1.7c0,1,0.8,1.7,1.7,1.7
					C173.4-209.8,174.2-210.6,174.2-211.5z"/>
				<path class="st1" d="M230.2-174.4c0,0.8-0.6,1.4-1.4,1.4c-0.8,0-1.4-0.6-1.4-1.4c0-0.8,0.6-1.4,1.4-1.4
					C229.6-175.7,230.2-175.1,230.2-174.4z"/>
				<path class="st2" d="M235.7-212.8c0,1.2-1,2.2-2.2,2.2s-2.2-1-2.2-2.2c0-1.2,1-2.2,2.2-2.2S235.7-214,235.7-212.8z"/>
				<path class="st3" d="M152.2-189.6c0,0.7-0.5,1.2-1.2,1.2s-1.2-0.5-1.2-1.2s0.5-1.2,1.2-1.2S152.2-190.2,152.2-189.6z"/>
				<path class="st3" d="M148.6-121.1c0,0.8-0.6,1.4-1.4,1.4s-1.4-0.6-1.4-1.4c0-0.8,0.6-1.4,1.4-1.4S148.6-121.9,148.6-121.1z"/>
				<path class="st2" d="M233.1-143.1c0,0.7-0.5,1.2-1.2,1.2c-0.7,0-1.2-0.5-1.2-1.2c0-0.7,0.5-1.2,1.2-1.2
					C232.6-144.3,233.1-143.7,233.1-143.1z"/>
				<path class="st1" d="M195.9-125.1c0,1.9-1.5,3.4-3.4,3.4c-1.9,0-3.4-1.5-3.4-3.4c0-1.9,1.5-3.4,3.4-3.4
					C194.3-128.5,195.9-127,195.9-125.1z"/>
				<path class="st2" d="M200.8-85.3c0,1.2-0.9,2.1-2.1,2.1s-2.1-0.9-2.1-2.1s0.9-2.1,2.1-2.1S200.8-86.4,200.8-85.3z"/>
				<path class="st2" d="M162-91.6c0,0.9-0.7,1.6-1.6,1.6c-0.9,0-1.6-0.7-1.6-1.6c0-0.9,0.7-1.6,1.6-1.6
					C161.3-93.1,162-92.4,162-91.6z"/>
				<path class="st1" d="M235.7-205.6c0,1.4-1.2,2.6-2.6,2.6c-1.4,0-2.6-1.2-2.6-2.6c0-1.4,1.2-2.6,2.6-2.6
					C234.5-208.2,235.7-207.1,235.7-205.6z"/>
				<path class="st3" d="M225.5-170.8c0,1.3-1.1,2.4-2.4,2.4c-1.3,0-2.4-1.1-2.4-2.4s1.1-2.4,2.4-2.4
					C224.4-173.1,225.5-172.1,225.5-170.8z"/>
				<path class="st2" d="M127.7-164.2c0,1.4-1.2,2.6-2.6,2.6c-1.4,0-2.6-1.2-2.6-2.6c0-1.4,1.2-2.6,2.6-2.6
					C126.5-166.8,127.7-165.6,127.7-164.2z"/>
				<path class="st3" d="M122.7-171.3c0,0.7-0.6,1.3-1.3,1.3c-0.7,0-1.3-0.6-1.3-1.3s0.6-1.3,1.3-1.3
					C122.1-172.6,122.7-172,122.7-171.3z"/>
				<path class="st2" d="M186.9-119.4c0,0.9-0.7,1.6-1.6,1.6c-0.9,0-1.6-0.7-1.6-1.6c0-0.9,0.7-1.6,1.6-1.6
					C186.2-120.9,186.9-120.2,186.9-119.4z"/>
			</g>
			<g>
				<path class="st3" d="M85-147c-3.2,4.7,1,10.7-1.4,15.2c-2.4,4.5-6.7,5-9.9,2.6c-3.6-2.8-3.4-6.6-8.3-8.8
					c-5.5-2.5-18,2.2-19.7-7.3c-0.9-4.8,2.4-8.6,7.3-9.7c6.1-1.4,9.4-0.2,15.4-3.1c6.1-2.9,11.2-9,22.1-12.1
					c10.4-3,16.1,1.6,16.6,5.9C108.2-155.9,90-154.4,85-147z M82.8-154.5c0-1.2-1-2.2-2.2-2.2c-1.2,0-2.2,1-2.2,2.2
					c0,1.2,1,2.2,2.2,2.2C81.8-152.2,82.8-153.2,82.8-154.5z"/>
				<path class="st2" d="M112-107.9c0,17.2-14.5,25.5-27,22.8c-10.3-2.2-12.8-17.3-16.7-26.2c-3.7-8.6-8.8-22.5-20.2-22.5
					c-11.2,0-12.8,14.5-23.7,14.5c-11,0-24.5-15.7-24.5-39.7c0-14.7,9.8-31.5,20.8-30.7c11.7,0.8,4.5,19.7,15.3,19.7
					c9.5,0,7.9-16.3,9.2-23.3c1.7-9,6.8-14.2,18.5-13.2c14.4,1.2,22.3,13.5,18.9,23.3c-4,11.5-23.9,17.3-21.5,30.5
					c1.3,7.6,13,12,26,16.2C101.7-131.7,112-125,112-107.9z M67-183.7c0,1.8,1.5,3.3,3.3,3.3c1.8,0,3.3-1.5,3.3-3.3
					s-1.5-3.3-3.3-3.3C68.5-187,67-185.5,67-183.7z M20.4-158.8c0-1-0.8-1.7-1.7-1.7c-1,0-1.7,0.8-1.7,1.7c0,1,0.8,1.7,1.7,1.7
					C19.6-157.1,20.4-157.8,20.4-158.8z M37.8-148.1c0-2.1-1.7-3.8-3.8-3.8c-2.1,0-3.8,1.7-3.8,3.8c0,2.1,1.7,3.8,3.8,3.8
					C36.1-144.3,37.8-146,37.8-148.1z M57.7-163.6c0-0.9-0.7-1.6-1.6-1.6c-0.9,0-1.6,0.7-1.6,1.6c0,0.9,0.7,1.6,1.6,1.6
					C57-162.1,57.7-162.8,57.7-163.6z M87.4-108.9c0-1.8-1.4-3.2-3.2-3.2c-1.8,0-3.2,1.4-3.2,3.2c0,1.8,1.4,3.2,3.2,3.2
					C85.9-105.8,87.4-107.2,87.4-108.9z"/>
				<path class="st2" d="M109.2-128.1c0-8.4-5.1-15.2-11.3-15.2c-6.3,0-11.3,6.8-11.3,15.2c0,8.4,5.1,12.4,11.3,12.4
					C104.1-115.6,109.2-119.7,109.2-128.1z"/>
			</g>
		</g>
	</pattern>
</defs>
<path class="st4" d="M0,599.9C0,399.9,0,200,0,0c40,0,80.1,0,120.1,0c0,200,0,399.9,0,599.9C80.1,599.9,40,599.9,0,599.9z
	 M42.1,559.7c11.8,0,23.6,0,35.5,0c-5.9-7.9-11.8-15.8-17.7-23.7C53.9,544,48,551.8,42.1,559.7z M59.8,587.8
	c5.9-7.9,11.8-15.8,17.7-23.7c-11.9,0-23.6,0-35.5,0C48,572,53.9,579.9,59.8,587.8z M38.2,565.9c-3.9,7.8-7.7,15.5-11.5,23.2
	c9.7,0,19.3,0,28.9,0C49.8,581.4,44,573.7,38.2,565.9z M93,589.2c-3.8-7.8-7.7-15.5-11.5-23.3c-5.8,7.8-11.6,15.5-17.4,23.3
	C73.8,589.2,83.4,589.2,93,589.2z M38.2,557.9c5.8-7.8,11.6-15.5,17.4-23.2c-9.7,0-19.3,0-28.9,0C30.5,542.4,34.3,550.1,38.2,557.9z
	 M81.5,557.9c3.9-7.8,7.7-15.5,11.5-23.2c-9.7,0-19.3,0-28.9,0C69.9,542.4,75.7,550.1,81.5,557.9z M15.1,559.8c6.4,0,12.8,0,19.2,0
	c-3.6-7.3-7.2-14.6-10.9-22C20.7,545.2,17.9,552.5,15.1,559.8z M34.4,564c-6.4,0-12.8,0-19.2,0c2.8,7.3,5.5,14.6,8.3,22
	C27.1,578.6,30.7,571.4,34.4,564z M85.3,559.8c6.4,0,12.8,0,19.2,0c-2.8-7.3-5.5-14.6-8.3-22C92.5,545.2,88.9,552.4,85.3,559.8z
	 M85.3,564c3.6,7.3,7.2,14.6,10.9,22c2.8-7.4,5.6-14.7,8.3-22C98.1,564,91.7,564,85.3,564z M55.4,530.3c-3.2-3.9-6.3-7.8-9.5-11.7
	c-5.4,3.9-10.7,7.8-16.1,11.7C38.4,530.3,46.8,530.3,55.4,530.3z M89.9,530.3c-5.4-3.9-10.8-7.8-16.1-11.7
	c-3.2,3.9-6.3,7.8-9.5,11.7C72.8,530.3,81.3,530.3,89.9,530.3z M68.9,517.9c-6.1,0-12.1,0-18.1,0c3,3.8,6,7.5,9.1,11.2
	C62.9,525.3,65.9,521.6,68.9,517.9z"/>
<path class="st5" d="M0,599.9C0,399.9,0,200,0,0c40,0,80.1,0,120.1,0c0,200,0,399.9,0,599.9C80.1,599.9,40,599.9,0,599.9z
	 M42.1,559.7c11.8,0,23.6,0,35.5,0c-5.9-7.9-11.8-15.8-17.7-23.7C53.9,544,48,551.8,42.1,559.7z M59.8,587.8
	c5.9-7.9,11.8-15.8,17.7-23.7c-11.9,0-23.6,0-35.5,0C48,572,53.9,579.9,59.8,587.8z M38.2,565.9c-3.9,7.8-7.7,15.5-11.5,23.2
	c9.7,0,19.3,0,28.9,0C49.8,581.4,44,573.7,38.2,565.9z M93,589.2c-3.8-7.8-7.7-15.5-11.5-23.3c-5.8,7.8-11.6,15.5-17.4,23.3
	C73.8,589.2,83.4,589.2,93,589.2z M38.2,557.9c5.8-7.8,11.6-15.5,17.4-23.2c-9.7,0-19.3,0-28.9,0C30.5,542.4,34.3,550.1,38.2,557.9z
	 M81.5,557.9c3.9-7.8,7.7-15.5,11.5-23.2c-9.7,0-19.3,0-28.9,0C69.9,542.4,75.7,550.1,81.5,557.9z M15.1,559.8c6.4,0,12.8,0,19.2,0
	c-3.6-7.3-7.2-14.6-10.9-22C20.7,545.2,17.9,552.5,15.1,559.8z M34.4,564c-6.4,0-12.8,0-19.2,0c2.8,7.3,5.5,14.6,8.3,22
	C27.1,578.6,30.7,571.4,34.4,564z M85.3,559.8c6.4,0,12.8,0,19.2,0c-2.8-7.3-5.5-14.6-8.3-22C92.5,545.2,88.9,552.4,85.3,559.8z
	 M85.3,564c3.6,7.3,7.2,14.6,10.9,22c2.8-7.4,5.6-14.7,8.3-22C98.1,564,91.7,564,85.3,564z M55.4,530.3c-3.2-3.9-6.3-7.8-9.5-11.7
	c-5.4,3.9-10.7,7.8-16.1,11.7C38.4,530.3,46.8,530.3,55.4,530.3z M89.9,530.3c-5.4-3.9-10.8-7.8-16.1-11.7
	c-3.2,3.9-6.3,7.8-9.5,11.7C72.8,530.3,81.3,530.3,89.9,530.3z M68.9,517.9c-6.1,0-12.1,0-18.1,0c3,3.8,6,7.5,9.1,11.2
	C62.9,525.3,65.9,521.6,68.9,517.9z"/>
<rect x="11.7" y="257.1" class="st0" width="96" height="257.5"/>
<text transform="matrix(1 0 0 1 11.696 298.4398)"><tspan x="0" y="0" class="st6 st7 st8">This</tspan><tspan x="86" y="0" class="st6 st7 st9"> </tspan><tspan x="0" y="35.2" class="st6 st7 st10">Summer,</tspan><tspan x="93.5" y="35.2" class="st6 st7 st11"> </tspan><tspan x="0" y="70.8" class="st6 st7 st12">Science</tspan><tspan x="85.4" y="70.8" class="st6 st7 st11"> </tspan><tspan x="0" y="114" class="st6 st7 st13">World</tspan><tspan x="90.7" y="114" class="st14 st7 st13"> </tspan><tspan x="0" y="142.8" class="st6 st7 st11">comes to </tspan><tspan x="0" y="190.8" class="st14 st7 st8">you!</tspan></text>
<g>
	<path class="st6" d="M42.2,559.7C48.1,551.8,54,544,59.9,536c5.9,7.9,11.8,15.8,17.7,23.7C65.8,559.7,54,559.7,42.2,559.7z"/>
	<path class="st6" d="M59.9,587.8c-5.9-7.9-11.8-15.8-17.7-23.7c11.8,0,23.6,0,35.5,0C71.7,572,65.8,579.9,59.9,587.8z"/>
	<path class="st6" d="M38.3,565.9c5.8,7.8,11.6,15.5,17.4,23.2c-9.7,0-19.2,0-28.9,0C30.6,581.4,34.4,573.7,38.3,565.9z"/>
	<path class="st6" d="M93.1,589.2c-9.7,0-19.2,0-28.9,0c5.8-7.8,11.6-15.5,17.4-23.3C85.4,573.7,89.2,581.4,93.1,589.2z"/>
	<path class="st6" d="M38.3,557.9c-3.9-7.8-7.7-15.5-11.5-23.2c9.7,0,19.2,0,28.9,0C49.8,542.4,44.1,550.1,38.3,557.9z"/>
	<path class="st6" d="M81.6,557.9c-5.8-7.8-11.6-15.5-17.4-23.2c9.6,0,19.2,0,28.9,0C89.2,542.4,85.4,550.1,81.6,557.9z"/>
	<path class="st6" d="M15.2,559.8c2.8-7.3,5.5-14.6,8.3-22c3.7,7.4,7.3,14.7,10.9,22C28,559.8,21.6,559.8,15.2,559.8z"/>
	<path class="st6" d="M34.5,564c-3.6,7.3-7.2,14.6-10.9,22c-2.8-7.4-5.6-14.7-8.3-22C21.6,564,28,564,34.5,564z"/>
	<path class="st6" d="M85.3,559.8c3.6-7.3,7.2-14.6,10.9-22c2.8,7.4,5.6,14.7,8.3,22C98.1,559.8,91.7,559.8,85.3,559.8z"/>
	<path class="st6" d="M85.4,564c6.4,0,12.8,0,19.2,0c-2.8,7.3-5.5,14.6-8.3,22C92.6,578.6,89,571.4,85.4,564z"/>
	<path class="st6" d="M55.4,530.3c-8.6,0-17,0-25.6,0c5.4-3.9,10.7-7.8,16.1-11.7C49.1,522.5,52.2,526.4,55.4,530.3z"/>
	<path class="st6" d="M90,530.3c-8.6,0-17,0-25.6,0c3.2-3.9,6.3-7.8,9.5-11.7C79.2,522.5,84.5,526.4,90,530.3z"/>
	<path class="st6" d="M69,517.9c-3,3.8-6,7.5-9.1,11.2c-3-3.7-6-7.5-9.1-11.2C56.9,517.9,62.9,517.9,69,517.9z"/>
</g>
</svg>
